<svg xmlns="http://www.w3.org/2000/svg" viewBox="0 0 1366 766.01"><defs><style>.cls-1{fill:#a8472a;}.cls-2{fill:#fff;}.cls-3{fill:#f3e5a6;}.cls-4{fill:#020202;}.cls-5{fill:#383838;}.cls-6{fill:#291212;}.cls-7{font-size:39px;fill:#8cc63f;font-family:AgencyFB-Reg, Agency FB;}</style></defs><title>radio FINAAAAAAAAAAL</title><g id="radio"><rect class="cls-1" x="2.5" y="191.43" width="1360.64" height="572.07"/><path d="M1360.64,193.93V761H5V193.93H1360.64m5-5H0V766H1365.64V188.93Z" transform="translate(0 0)"/><path class="cls-2" d="M1094.38,748.6a256.68,256.68,0,1,1,181.8-75.06A255.87,255.87,0,0,1,1094.38,748.6Z" transform="translate(0 0)"/><path d="M1094.38,241.11a251.78,251.78,0,1,1-98.14,19.75,251.23,251.23,0,0,1,98.14-19.75m0-10c-144.76,0-262.11,117-262.11,261.25S949.62,753.6,1094.38,753.6s262.1-117,262.1-261.24-117.35-261.25-262.1-261.25Z" transform="translate(0 0)"/><polygon class="cls-3" points="576.11 517.86 572.56 218.6 2.85 218.6 2.85 2.5 1363.5 2.5 1363.5 218.6 793.74 218.6 797.3 517.86 576.11 517.86"/><path d="M1361,5V216.1H791.21l.06,5.06,3.5,294.2H578.58L575.09,221,575,216.1H5.36V5H1361m5-5H.36V221.1H570.09l3.55,299.26H799.83L796.27,221.1H1366V0Z" transform="translate(0 0)"/><path class="cls-4" d="M1094.08,707.74a216,216,0,1,1,153-63.17A215.36,215.36,0,0,1,1094.08,707.74Z" transform="translate(0 0)"/><path d="M1094.08,276.88a215.53,215.53,0,1,1-84,16.91,215.14,215.14,0,0,1,84-16.91m0-1c-119.79,0-216.89,96.79-216.89,216.18s97.1,216.18,216.89,216.18S1311,611.45,1311,492.06s-97.11-216.18-216.89-216.18Z" transform="translate(0 0)"/><path class="cls-2" d="M1095.86,524.87a33.17,33.17,0,1,1,33.27-33.17A33.26,33.26,0,0,1,1095.86,524.87Z" transform="translate(0 0)"/><path d="M1095.86,459a32.67,32.67,0,1,1-32.78,32.66A32.75,32.75,0,0,1,1095.86,459m0-1a33.67,33.67,0,1,0,33.77,33.66A33.72,33.72,0,0,0,1095.86,458Z" transform="translate(0 0)"/><path class="cls-2" d="M273.73,749.31a256.25,256.25,0,1,1,181.8-437.43,256.25,256.25,0,0,1-181.8,437.43Z" transform="translate(0 0)"/><path d="M273.73,241.82a251,251,0,1,1-232.31,349,251.54,251.54,0,0,1,232.31-349m0-10c-144.76,0-262.11,117-262.11,261.24S129,754.31,273.73,754.31s262.1-117,262.1-261.25S418.48,231.82,273.73,231.82Z" transform="translate(0 0)"/><path d="M273.43,708.45a215.68,215.68,0,1,1,153-368.19,215.69,215.69,0,0,1-153,368.19Z" transform="translate(0 0)"/><path d="M273.43,277.59A214.94,214.94,0,1,1,74.5,576.52a214.53,214.53,0,0,1,46.27-235.91,215.58,215.58,0,0,1,152.66-63m0-1c-119.79,0-216.89,96.79-216.89,216.18S153.64,709,273.43,709s216.89-96.79,216.89-216.18S393.21,276.59,273.43,276.59Z" transform="translate(0 0)"/><path class="cls-2" d="M275.21,525.58a33.17,33.17,0,1,1,33.27-33.17A33.26,33.26,0,0,1,275.21,525.58Z" transform="translate(0 0)"/><path d="M275.21,459.75a32.67,32.67,0,1,1-32.78,32.66,32.75,32.75,0,0,1,32.78-32.66m0-1A33.67,33.67,0,1,0,309,492.41a33.72,33.72,0,0,0-33.77-33.66Z" transform="translate(0 0)"/><rect class="cls-4" x="762.63" y="232.32" width="14.65" height="259.89" rx="5.73"/><path d="M771.55,232.82a5.24,5.24,0,0,1,5.23,5.23V486.49a5.23,5.23,0,0,1-5.23,5.22h-3.2a5.22,5.22,0,0,1-5.22-5.22V238.05a5.23,5.23,0,0,1,5.22-5.23h3.2m0-1h-3.2a6.23,6.23,0,0,0-6.22,6.23V486.49a6.23,6.23,0,0,0,6.22,6.22h3.2a6.23,6.23,0,0,0,6.23-6.22V238.05a6.23,6.23,0,0,0-6.23-6.23Z" transform="translate(0 0)"/><rect class="cls-4" x="734.18" y="232.32" width="14.65" height="259.89" rx="5.73"/><path d="M743.1,232.82a5.24,5.24,0,0,1,5.23,5.23V486.49a5.23,5.23,0,0,1-5.23,5.22h-3.2a5.22,5.22,0,0,1-5.22-5.22V238.05a5.23,5.23,0,0,1,5.22-5.23h3.2m0-1h-3.2a6.23,6.23,0,0,0-6.22,6.23V486.49a6.23,6.23,0,0,0,6.22,6.22h3.2a6.23,6.23,0,0,0,6.23-6.22V238.05a6.23,6.23,0,0,0-6.23-6.23Z" transform="translate(0 0)"/><path class="cls-4" d="M711.45,232.32h3.2a5.73,5.73,0,0,1,5.73,5.73V486.49a5.72,5.72,0,0,1-5.72,5.72h-3.2a5.73,5.73,0,0,1-5.73-5.73V238a5.73,5.73,0,0,1,5.73-5.73Z"/><path d="M714.65,232.82a5.24,5.24,0,0,1,5.23,5.23V486.49a5.23,5.23,0,0,1-5.23,5.22h-3.2a5.22,5.22,0,0,1-5.22-5.22V238.05a5.23,5.23,0,0,1,5.22-5.23h3.2m0-1h-3.2a6.22,6.22,0,0,0-6.22,6.23V486.49a6.22,6.22,0,0,0,6.22,6.22h3.2a6.23,6.23,0,0,0,6.23-6.22V238.05a6.23,6.23,0,0,0-6.23-6.23Z" transform="translate(0 0)"/><rect class="cls-4" x="677.28" y="232.32" width="14.65" height="259.89" rx="5.73"/><path d="M686.2,232.82a5.23,5.23,0,0,1,5.22,5.23V486.49a5.22,5.22,0,0,1-5.22,5.22H683a5.22,5.22,0,0,1-5.22-5.22V238.05a5.23,5.23,0,0,1,5.22-5.23h3.2m0-1H683a6.22,6.22,0,0,0-6.22,6.23V486.49a6.22,6.22,0,0,0,6.22,6.22h3.2a6.22,6.22,0,0,0,6.22-6.22V238.05a6.22,6.22,0,0,0-6.22-6.23Z" transform="translate(0 0)"/><rect class="cls-4" x="648.83" y="232.32" width="14.65" height="259.89" rx="5.73"/><path d="M657.75,232.82a5.23,5.23,0,0,1,5.22,5.23V486.49a5.22,5.22,0,0,1-5.22,5.22h-3.2a5.22,5.22,0,0,1-5.22-5.22V238.05a5.23,5.23,0,0,1,5.22-5.23h3.2m0-1h-3.2a6.22,6.22,0,0,0-6.22,6.23V486.49a6.22,6.22,0,0,0,6.22,6.22h3.2a6.22,6.22,0,0,0,6.22-6.22V238.05a6.22,6.22,0,0,0-6.22-6.23Z" transform="translate(0 0)"/><rect class="cls-4" x="620.37" y="232.32" width="14.65" height="259.89" rx="5.73"/><path d="M629.3,232.82a5.23,5.23,0,0,1,5.22,5.23V486.49a5.22,5.22,0,0,1-5.22,5.22h-3.2a5.23,5.23,0,0,1-5.23-5.22V238.05a5.24,5.24,0,0,1,5.23-5.23h3.2m0-1h-3.2a6.23,6.23,0,0,0-6.23,6.23V486.49a6.23,6.23,0,0,0,6.23,6.22h3.2a6.22,6.22,0,0,0,6.22-6.22V238.05a6.22,6.22,0,0,0-6.22-6.23Z" transform="translate(0 0)"/><rect class="cls-4" x="591.92" y="232.32" width="14.65" height="259.89" rx="5.73"/><path d="M600.85,232.82a5.23,5.23,0,0,1,5.22,5.23V486.49a5.22,5.22,0,0,1-5.22,5.22h-3.2a5.23,5.23,0,0,1-5.23-5.22V238.05a5.24,5.24,0,0,1,5.23-5.23h3.2m0-1h-3.2a6.23,6.23,0,0,0-6.23,6.23V486.49a6.23,6.23,0,0,0,6.23,6.22h3.2a6.23,6.23,0,0,0,6.22-6.22V238.05a6.23,6.23,0,0,0-6.22-6.23Z" transform="translate(0 0)"/></g><g id="shadow3"><g id="shadow3-2" data-name="shadow3"><rect x="703.92" y="116.16" width="101.27" height="65.93" rx="26.32"/></g></g><g id="shadow4"><g id="shadow4-2" data-name="shadow4"><rect x="822.61" y="115.16" width="101.27" height="65.93" rx="26.32"/></g></g><g id="shadow2"><g id="shadow2-2" data-name="shadow2"><rect x="581.24" y="116.16" width="101.27" height="65.93" rx="26.32"/></g></g><g id="shadow1"><g id="shadow1-2" data-name="shadow1"><rect x="461.55" y="115.16" width="101.27" height="65.93" rx="26.32"/></g></g><g id="digital"><rect class="cls-5" x="453.44" y="33.32" width="465.88" height="62.39"/></g><g id="pause"><rect class="cls-6" x="574.35" y="109.18" width="101.27" height="65.93" rx="26.32"/><rect class="cls-2" x="630.33" y="121.73" width="11.8" height="40.12"/><path class="cls-6" d="M641.64,122.23v39.12H630.83V122.23h10.81m1-1H629.83v41.12h12.81V121.23Z" transform="translate(0 0)"/><rect class="cls-2" x="608.99" y="121.73" width="11.8" height="40.12"/><path class="cls-6" d="M620.3,122.23v39.12H609.49V122.23H620.3m1-1H608.49v41.12H621.3V121.23Z" transform="translate(0 0)"/></g><g id="play"><rect class="cls-6" x="455.57" y="109.18" width="101.27" height="65.93" rx="26.32"/><polygon class="cls-2" points="491.63 123.11 529.88 142.85 491.63 162.59 491.63 123.11"/><path class="cls-6" d="M492.13,123.93l36.66,18.92-36.66,18.92V123.93m-1-1.64v41.12L531,142.85l-39.84-20.56Z" transform="translate(0 0)"/></g><g id="rewind"><rect class="cls-6" x="816.78" y="109.18" width="101.27" height="65.93" rx="26.32"/><polygon class="cls-2" points="837.71 142.22 873.93 124.77 873.93 161.17 837.71 142.22"/><path class="cls-6" d="M871.93,128v29.92l-29.76-15.58L871.93,128m4-6.37-42.67,20.56,42.67,22.33V121.58Z" transform="translate(0 0)"/><polygon class="cls-2" points="858.24 142.14 891.72 124.87 891.72 159.42 858.24 142.14"/><path class="cls-6" d="M889.71,128.15v28l-27.11-14,27.11-14m4-6.57-39.83,20.56,39.83,20.56V121.58Z" transform="translate(0 0)"/></g><g id="forward"><rect class="cls-6" x="698.71" y="109.18" width="101.27" height="65.93" rx="26.32"/><polygon class="cls-2" points="747.77 124.87 781.24 142.14 747.77 159.42 747.77 124.87"/><path class="cls-6" d="M749.77,128.15l27.11,14-27.11,14v-28m-4-6.57V162.7l39.83-20.56-39.83-20.56Z" transform="translate(0 0)"/><polygon class="cls-2" points="727.14 124.87 760.61 142.14 727.14 159.42 727.14 124.87"/><path class="cls-6" d="M729.14,128.15l27.11,14-27.11,14v-28m-4-6.57V162.7L765,142.14l-39.83-20.56Z" transform="translate(0 0)"/></g><g id="bLeft"><ellipse class="cls-6" cx="129.81" cy="95.71" rx="67.57" ry="67.35"/></g><g id="sLeft"><ellipse class="cls-6" cx="324.7" cy="95.71" rx="46.94" ry="46.79"/></g><g id="bRight"><ellipse class="cls-6" cx="1244.37" cy="95.71" rx="67.57" ry="67.35"/></g><g id="sRight"><ellipse class="cls-6" cx="1049.48" cy="95.71" rx="46.94" ry="46.79"/></g><g id="font"><text class="cls-7" transform="translate(467.66 78.86)">PLAYING - STORIES OF THE UNUSUAL</text></g></svg>